/* XPM */
static char *dummy[]={
"64 64 5 1",
". c #0d2b45",
"c c #203c56",
"# c #544e68",
"b c #8d697a",
"a c #d08159",
".#a#######bbc......cc.#bbbbb#################################a#.",
"#aabbbbbbabbb.....ccaaaaaaaaaaaaaaaaaabaabbbbbbbbbbaaaabbbbbbaa#",
"#bbaaaaaaabbb.....babbbbbbbbbbbaaaaaaaaaaaaaabbbaaaaaaaaaaaaabb#",
"#bbbaabaabbbbc....babbbbbbbbbbb##b##bbbbbbbbbbbbb#######bbaabbb#",
"#abbbabbbbbbbb....bbabbbbbbbbbbbbbbbbbbbbbbbbbbbbbbb#b#bbbabbba#",
"#abbbbabbbbb#b....bbabbbbbbbbbbabbbbbaaaaaaaaaaabbbbbbbbaabbbba#",
"#bbbbaaaaa###b....b#aaaaaaa#####aaaaa###########aaaaaaaaaaabbbb#",
"#abbba######bb....bba#####################################abbba#",
"#abbba######bb....bba#####################################abbba#",
"#abbba#######b....#ba#####################################abbba#",
"#abbba#######b....#ba#####################################abbba#",
"#bbb########bb....bb########################c###############bbb#",
"#bbbb#######bb....ba##c###################ccb##############bbbb#",
"#abbba######bb....ba###c#################bb###############abbba#",
"#abba#a###cbbc....bccccccc#######ccccc##########cccccc###a#abbb#",
"bcaaacccccccb......cccccc#cccccccccccccccccccccccccccccccccaaaab",
"..cccccccc.........cc..cccc.cccc..c.ccc.cc....ccc...c.cccccccca.",
"................................................................",
"................................................................",
"................................................................",
"................................................................",
"..........###############........c###########...####............",
".babbbbbbb.##c#c##c#######......c#####ccc######bbbbbbbbbbbbbbbb.",
"cababbbbbaabbbbbbbccc#c####....c#c##ccccccccccccccccccbbbbbbbbbc",
"ca##baacccccccccccccccccc#c....c#ccccccccccccccccccccccccbbb###c",
"ca####cccccccccccccccccccc#....#ccccccccccccccccccccccccccb###bc",
"c#####accccccccccccccccccc#....#ccccccccccccccccccccccccc###b##c",
"ca####acccccccccccccccccc##....#cccccccccc.cccccccccccccc#####bc",
"cb####bccccc#.ccccccccccc##....#cccc.ccccc#ccccccccccccccb####bc",
"cb#cb#bccccccccccccccccccc#....#cccc#.cccccccccccccccccccb####bc",
"c#####bcccccccccccccccccc##....##cccc#cccccccccccccccccccb#####c",
"cb####bccccccccccccc.ccccc#....#cccccccccccccccccc.ccccccb####bc",
"cb####acccccccccccc#.ccccc#....#ccccccccccccccccc#.ccccccb####bc",
"cb####acccccccccccccccccc##....##cccccccccccccccc#ccccccc#####bc",
"c##bbc##bb####ccccccc..cc##....##cc.cccccccccccccccc..ccc#cbb##c",
"c#c....c.c#cccccccc.......#....#....cccccc.cccc.........c....c#c",
"..cc......c......c..............................................",
".......cc.......................................................",
"................................................................",
"................................................................",
"................................................................",
"................................................................",
"###..#############cccccc....c...................................",
"cccb###########ccc.............................##############b.c",
"cbccc.cbbbccccccccccccccccccccccccccccc###.....##########bbbb#cc",
".c###b#cccccccccccccccccccccccccccccccc####....#########b#####cc",
".#####cccccccccccccccccccccccccccccccccccb#....####ccccc######bc",
".####ccccccccccccccccccccccccccccccccccccb#....##ccccccc######bc",
".####bccccccccccccccccccccccccccccccccccc##....##cccccccb#####bc",
".c###cccccccc..cccccccccccccccccccc.ccccc##....##cc.ccccb#####bc",
".#c##bccccccc..cccccccccccccccccccc.c.ccc##....##cc#cccc######bc",
".####bcccccccc...cccccccccccccccccccccccc##....##ccccccc.#####bc",
".b####cccccccc#c...cccccccccccccccccccccc##....##ccccc#c..c###bc",
".a####ccccccccccccccccccccccccccccccccccc##....##ccccccc#bb###bc",
".b###bccccccccccccccccccccccccccccccccccc##...ccccccccccb#####cc",
".b##.bccccccccccccccccccccccccccccccccccc##...bcccbcccccb#####bc",
".a##cb##cccccccccccccccc#cccccccccccccccc##....bbb#ccccc######bc",
".c####b..cccccc..c...cccccccccc...c....ccb#....##ccccccc#c####bc",
".##ccbc############bb#ccccc##ccc..cccc#..cc...c..........####bc.",
".b##b.c#c####bb#cccc#ccccc##cc.c##########......#ac####....b#b..",
".##b#c######ccccccccccccccccc##########c#cb...c#bc##########.#..",
"..bb####ba#ccccccccccccccccc############cc#...cacc##########b...",
"..bbb###b##########cccc#####ccc###########c.....##.########b....",
"................................................................"};
