/* XPM */
static char *dummy[]={
"64 64 8 1",
"f c #0d2b45",
"e c #203c56",
"d c #544e68",
". c #8d697a",
"c c #d08159",
"# c #ffaa5e",
"b c #ffd4a3",
"a c #ffecd6",
".#a#######bbc.dded.cc.#bbbbb#################################a#.",
"#aabbbbbbabbb..ee.ccaaaaaaaaaaaaaaaaaabaabbbbbbbbbbaaaabbbbbbaa#",
"#bbaaaaaaabbb..dd.babbbbbbbbbbbaaaaaaaaaaaaaabbbaaaaaaaaaaaaabb#",
"#bbbaabaabbbbc..d.babbbbbbbbbbb##b##bbbbbbbbbbbbb#######bbaabbb#",
"#abbbabbbbbbbb.d..bbabbbbbbbbbbbbbbbbbbbbbbbbbbbbbbb#b#bbbabbba#",
"#abbbbabbbbb#b....bbabbbbbbbbbbabbbbbaaaaaaaaaaabbbbbbbbaabbbba#",
"#bbbbaaaaa###b....b#aaaaaaa#####aaaaa###########aaaaaaaaaaabbbb#",
"#abbba######bb.d..bba#####################################abbba#",
"#abbba######bb..d.bba#####################################abbba#",
"#abbba#######b..e.#ba#####################################abbba#",
"#abbba#######b..e.#ba#####################################abbba#",
"#bbb########bb..d.bb########################c###############bbb#",
"#bbbb#######bb..d.ba##c###################ccb##############bbbb#",
"#abbba######bb.d..ba###c#################bb###############abbba#",
"#abba#a###cbbc....bccccccc#######ccccc##########cccccc###a#abbb#",
"bcaaacccccccb..d...cccccc#cccccccccccccccccccccccccccccccccaaaab",
"..cccccccc.....e...cc..cccc.cccc..c.ccc.cc....ccc...c.cccccccca.",
"...............d...............ddddd..d.........................",
"d...............dddddddddddddddddddddd.d.......................d",
"dd..............dddddddddd.eeefd..dd...dd.....................dd",
"d.dd.........d..ddddddddddddeefdddddd...ddddddd.............dd.d",
"..dddd...d###############.d..fdd.c###########.d.####..d...dddd..",
".babbbbbbbd##c#c##c#######...fd.c#####ccc######bbbbbbbbbbbbbbbb.",
"cababbbbbaabbbbbbbccc#c####d.edc#c##ccccccccccccccccccbbbbbbbbbc",
"ca##baacccccccccccccccccc#cde.dc#ccccccccccccccccccccccccbbb###c",
"ca####cccccccccccccccccccc#dedd#ccccccccccccccccccccccccccb###bc",
"c#####accccccccccccccccccc#dedd#ccccccccccccccccccccccccc###b##c",
"ca####acccccccccccccccccc##dddd#cccccccccc.cccccccccccccc#####bc",
"cb####bccccc#.ccccccccccc##dddd#cccc.ccccc#ccccccccccccccb####bc",
"cb#cb#bccccccccccccccccccc#dddd#cccc#.cccccccccccccccccccb####bc",
"c#####bcccccccccccccccccc##dddd##cccc#cccccccccccccccccccb#####c",
"cb####bccccccccccccc.ccccc#dddd#cccccccccccccccccc.ccccccb####bc",
"cb####acccccccccccc#.ccccc#d.dd#ccccccccccccccccc#.ccccccb####bc",
"cb####acccccccccccccccccc##d.dd##cccccccccccccccc#ccccccc#####bc",
"c##bbc##bb####ccccccc..cc##dddd##cc.cccccccccccccccc..ccc#cbb##c",
"c#c....c.c#cccccccc.......#dddd#....cccccc.cccc.........c....c#c",
"..cc......c......c........ddddd.................................",
"ddddeeecc................ddddddeeee.....ee...............eeedddd",
"eeddddddddddddddddddddddedddddddddddeddeeddeeeeeedddddddddddddee",
"e.e...ddddddddddddddddddddddddddddddddddeeeeedddddddddddd......e",
"ddd.dd..ddddddddddddddddddddeeeeddddddeeeeedddddddddddddd...e.ee",
"......ddeeeeeeeeeeeeeeeeeeeeeeeeeeeeeeeeeeedddeeeedddddeed.e.ee.",
"###.d#############cccccc....cded.......ddddedddddddddddddd......",
"cccb###########ccc......................dddde..##############b.c",
"cbccc.cbbbccccccccccccccccccccccccccccc###dde..##########bbbb#cc",
".c###b#cccccccccccccccccccccccccccccccc####de..#########b#####cc",
".#####cccccccccccccccccccccccccccccccccccb#de..####ccccc######bc",
"e####ccccccccccccccccccccccccccccccccccccb#de..##ccccccc######bc",
"e####bccccccccccccccccccccccccccccccccccc##de..##cccccccb#####bc",
"ec###ccccccccddccccccccccccccccccccdccccc##dde.##cc.ccccb#####bc",
"e#c##bcccccccddccccccccccccccccccccdcdccc##dd..##cc#cccc######bc",
"e####bccccccccdddcccccccccccccccccccccccc##dd..##ccccccc.#####bc",
"eb####cccccccc#cddecccccccccccccccccccccc##de..##ccccc#c..c###bc",
"ea####ccccccccccccccccccccccccccccccccccc##de..##ccccccc#bb###bc",
"eb###bccccccccccccccccccccccccccccccccccc##de.ccccccccccb#####cc",
"eb##.bccccccccccccccccccccccccccccccccccc##de.bcccbcccccb#####bc",
"ea##cb##cccccccccccccccc#cccccccccccccccc##de..bbb#ccccc######bc",
"ec####b.dcccccc..c..dccccccccccdddcddddccb#dd..##ccccccc#c####bc",
"e##ccbc############bb#ccccc##ccc..cccc#d.ccde.c..........####bc.",
"eb##bdc#c####bb#cccc#ccccc##cc.c##########deedd.#ac####....b#b.d",
"e##b#c######ccccccccccccccccc##########c#cbdeec#bc##########.#.e",
"e.bb####ba#ccccccccccccccccc############cc#eeecacc##########bdde",
"d.bbb###b##########cccc#####ccc###########ceedd.##d########bddde",
"ddddddddddddddddddddddddddddddddddddddddddddddeeeededddddeeeeddd"};
