/* XPM */
static char *dummy[]={
"64 64 558 2",
"Qt c #0d2b45",
"gC c #0e2c45",
"gL c #0f2b44",
"#N c #102c44",
"aC c #102d45",
"#j c #192e42",
"#i c #1c3143",
".s c #1d3041",
".Y c #1e2e3e",
"gq c #1f3141",
".c c #203c56",
"gD c #213b54",
"fz c #213c55",
"#g c #213c56",
".R c #22313f",
"e2 c #223c54",
".G c #23323e",
"gN c #233d56",
"dV c #242530",
"gE c #243d53",
"bQ c #252630",
"#f c #253b50",
"dd c #262630",
"fp c #262830",
"fD c #273749",
"#K c #273b4e",
"#M c #273d51",
"#3 c #28282f",
"cQ c #28292f",
"d1 c #282930",
"di c #282931",
"f2 c #283b4d",
"dc c #292931",
"fo c #292a30",
"a1 c #293036",
"f3 c #293849",
"f0 c #293949",
"#L c #293d4f",
"aF c #2a282f",
"e4 c #2a292f",
"#c c #2a2b30",
"aB c #2a3137",
"av c #2a3237",
"gP c #2a333a",
"fA c #2a3b4b",
".1 c #2b2a30",
"#1 c #2b2b2f",
"dh c #2b2b31",
"gR c #2b333a",
"f1 c #2b3a49",
"fB c #2b3b49",
"ad c #2c2b2f",
"ff c #2c2b30",
"cb c #2c2c30",
"bS c #2c2c31",
"gy c #2c2f33",
".t c #2c3237",
"a4 c #2c323b",
"bB c #2c3339",
"fC c #2c3b49",
".Z c #2d2c30",
"ck c #2d2c31",
".0 c #2d2d30",
"am c #2d2d31",
"gc c #2d2e30",
"fa c #2d2e31",
".C c #2d333a",
"a2 c #2d343a",
"bC c #2d343b",
"gf c #2d3b48",
"bT c #2e2d30",
"bR c #2e2d31",
"cS c #2e2e30",
"#d c #2e2f31",
"gd c #2e2f32",
"aD c #2e3032",
"bD c #2e353a",
"a3 c #2e353b",
"cl c #2f2d30",
"dO c #2f2e30",
"cj c #2f2e31",
"#2 c #2f2f2f",
"au c #2f2f31",
"#e c #2f3032",
"gz c #2f3234",
".O c #302f30",
"al c #302f31",
"cR c #303030",
"d2 c #303031",
"aa c #303032",
"ac c #303233",
"eA c #303336",
"eB c #303437",
"fy c #30363a",
"ab c #30373c",
"d3 c #313030",
"e3 c #313335",
"eD c #313436",
"eC c #313437",
"gO c #313537",
"aE c #323030",
"bE c #323031",
"dz c #32312f",
"a0 c #323130",
".H c #323131",
"dI c #323132",
"bm c #323231",
"#O c #323334",
"c9 c #333230",
".l c #333231",
"dH c #333232",
"b3 c #333331",
"fe c #333435",
"fc c #333536",
"gQ c #333637",
".p c #343230",
".k c #343231",
"eJ c #34332f",
".f c #343331",
"gK c #343938",
".q c #353231",
"cc c #353330",
".P c #353432",
"cv c #363531",
"eY c #373430",
"cT c #37352f",
"dB c #373531",
"f4 c #383230",
"dC c #38362f",
"dA c #383631",
"a5 c #383f39",
".2 c #393730",
"eo c #393731",
"gA c #39373a",
"ea c #39373c",
"#J c #394348",
".o c #3a3739",
"cM c #3a3830",
".e c #3a3839",
".j c #3a383a",
"cF c #3a3930",
"d9 c #3a393b",
"gr c #3b3935",
"e# c #3b393b",
"e. c #3b393c",
"fb c #3b3a40",
"eZ c #3c3730",
"bl c #3c3a31",
".D c #3c3a3f",
"fd c #3d3a40",
".E c #3d3b40",
"ep c #3e3c31",
"gF c #3e3c37",
"gg c #3f3931",
"eI c #3f3c37",
".I c #3f3d31",
"gH c #403a30",
"gG c #403b30",
".r c #403d43",
".m c #403e44",
".g c #403f45",
"gI c #413b30",
"gJ c #413b31",
".i c #413e45",
"#k c #414b3d",
"e0 c #423e3e",
"bF c #444131",
".w c #44423f",
"bn c #464231",
".v c #483f43",
"eb c #48453a",
".u c #4a4044",
"el c #4a4530",
"fn c #4c4830",
"db c #4d4830",
"#0 c #4e492e",
"dg c #4e4930",
"gp c #4e495c",
"gk c #4e495d",
"ge c #4e495e",
".Q c #4e4a5c",
".X c #4e4a5d",
"gB c #4f4a5f",
"en c #504a30",
".F c #504b60",
"eq c #514b2f",
"em c #514b30",
"ak c #524c30",
"eH c #524d63",
"gM c #524d65",
"aR c #534d30",
"dq c #544e30",
"eE c #544e67",
".# c #544e68",
"e1 c #544f67",
"eF c #544f68",
"do c #554f31",
"eG c #554f68",
"fE c #575d43",
"dp c #585231",
"fZ c #594d4b",
"cw c #5d5731",
"aZ c #5f4f30",
"f# c #605031",
"a# c #615131",
"bh c #61592f",
"fx c #625131",
"#G c #64512f",
"cz c #645c31",
"cy c #645d31",
"cA c #655d30",
"bk c #655d31",
"cx c #655e31",
"bp c #665d31",
"bi c #665e31",
"dT c #665e32",
"#H c #675430",
"eX c #675530",
"#I c #675531",
"bq c #675e30",
"bj c #675f31",
"bo c #686031",
"c6 c #6a6130",
"#n c #6a6633",
"#m c #6b6734",
"c4 c #6d6431",
"#l c #6d6934",
"c5 c #6f6530",
"dn c #716730",
"de c #716830",
"fq c #716931",
"#4 c #736930",
"eR c #736a31",
"#o c #736f38",
"dj c #746b31",
"an c #766c31",
"aS c #766d31",
"e9 c #776c31",
"#h c #795e6b",
"c3 c #7b6f30",
"dQ c #7b7031",
"fX c #7f6430",
"dR c #7f7432",
"dr c #817631",
"fY c #826631",
"dS c #827732",
"fH c #888238",
"fG c #898338",
"fF c #8b8639",
"aG c #8c8836",
"e5 c #8c8838",
".b c #8d697a",
"ae c #8d8938",
"fI c #8e8638",
"#P c #8e8a39",
"fg c #8f8a38",
"eK c #928d38",
"bA c #947333",
"fR c #987430",
"fP c #997530",
"fQ c #9b7730",
"c7 c #9c8d30",
".B c #a09a3f",
"gx c #a17d33",
"bP c #a1912d",
"dU c #a19131",
"cP c #a29331",
"ez c #a47f33",
"ca c #a49431",
"fO c #a88230",
"gb c #b08431",
"ek c #b09e31",
"gj c #b28731",
"dy c #b2a032",
"dK c #b3a131",
"go c #b48831",
"dG c #b4a131",
"a6 c #b4ae3e",
"fS c #b78f30",
"dN c #b7a532",
".x c #b7b03e",
"bx c #b88931",
"cZ c #b8a632",
"c2 c #b8a633",
"cf c #b98b30",
"by c #b98b31",
"dE c #ba8c30",
"c0 c #baa833",
"bg c #baab50",
"d8 c #bb8c30",
"c1 c #bba933",
"#b c #bbb53d",
"b2 c #bc8d30",
"bz c #bd8e31",
".W c #bdb63d",
"gs c #be8f32",
"#z c #beb73d",
"#A c #bfb83d",
".N c #c0b93d",
"a9 c #c2ba38",
"dP c #c3af32",
"a8 c #c4bd3e",
"a7 c #c6bf3e",
"bw c #c79c30",
"bU c #c8b432",
"#y c #c8c03d",
".d c #c97e58",
".h c #c97e59",
".n c #c97f59",
"cm c #c9b432",
"cd c #cab532",
".z c #cac23e",
"ec c #cac241",
"dD c #cbb531",
"#F c #ccbc3a",
"ew c #cd9731",
".y c #cdc53e",
"ex c #ce9831",
"fW c #cea431",
".A c #cfc63f",
".a c #d08159",
"f5 c #d09830",
"er c #d0ba32",
"du c #d0bb32",
"dt c #d1bb32",
"gh c #d29b30",
"gu c #d29c30",
"gv c #d29c31",
"#B c #d2c93d",
"ey c #d39c31",
"gl c #d49d30",
"cB c #d4be32",
"ds c #d4be33",
"gt c #d59d30",
"br c #d5be32",
"gw c #d7a031",
"ev c #d7a82f",
"cN c #d7c032",
"cG c #d8c134",
"cU c #dac233",
"ef c #dad141",
"ee c #dbd240",
"cY c #dcc532",
".3 c #ddd43a",
"b. c #ddd97e",
"ed c #ded440",
".S c #ded53f",
"fJ c #e0b731",
".J c #e2d93f",
"b4 c #e3da40",
"dW c #e6dd40",
"#p c #e6e06e",
"f7 c #e7a82f",
"aW c #e7a92f",
"aX c #e7aa2f",
"eQ c #e7ce34",
"eg c #e7d73b",
"f8 c #e8a82f",
"az c #e8a92f",
"as c #e8aa2f",
"eV c #e8ac2f",
"bG c #e8df41",
"ar c #e9a92f",
"aY c #e9ab30",
"aA c #eaab30",
"eW c #eaad30",
"f6 c #ebaa2f",
"at c #ebab30",
"d6 c #ebac2f",
"ce c #ebb630",
"fN c #ebbd30",
"d5 c #ecab2f",
"gi c #ecac2f",
"#8 c #ecac30",
"#9 c #ecad30",
"g# c #edac2f",
"a. c #edae31",
"fU c #edbf30",
"dv c #edd331",
"eO c #edd333",
"ga c #eeac2f",
"bZ c #eead2f",
"b0 c #eeae2f",
"d4 c #eeb830",
"fL c #eebf30",
"fM c #eec030",
"gm c #efae2f",
"fu c #efae30",
"f9 c #efaf2f",
"fv c #efaf30",
"#Z c #efd432",
"eP c #efd533",
"fm c #efd632",
"g. c #f0af30",
"bY c #f0ba30",
"fK c #f0c030",
"fT c #f0c130",
"aq c #f0cc31",
"eU c #f0cd31",
"dm c #f0d532",
"gn c #f1b02f",
"fw c #f1b031",
"fV c #f1c230",
"#7 c #f1cd31",
"bu c #f1ce31",
"e8 c #f1d532",
"aQ c #f1d633",
"dx c #f1d732",
"d7 c #f2b12f",
"bv c #f2ce31",
"eN c #f2d732",
"dw c #f2d832",
"eS c #f2d834",
"ft c #f3cf31",
"eu c #f3d430",
"et c #f3d431",
"bt c #f3d731",
"eT c #f3d932",
"es c #f4d831",
"cE c #f4da31",
"b1 c #f5b22f",
"bM c #f5d826",
"d0 c #f5d830",
"#W c #f5d929",
"bN c #f5d92a",
"c. c #f5d92d",
"cu c #f5d92e",
"cL c #f5d930",
"cD c #f5d931",
"#X c #f5da31",
"cO c #f5da32",
"da c #f5da33",
"aV c #f5db31",
"bW c #f5dc31",
"bX c #f5dd31",
"ej c #f5dd33",
"ei c #f5dd34",
"ct c #f5dd45",
"#x c #f5e73c",
"#6 c #f6db31",
"cJ c #f6db33",
"ap c #f6dc31",
"cH c #f6dc32",
"cI c #f6dc33",
"eh c #f6dd34",
"fs c #f6de31",
"bL c #f6de46",
"b9 c #f6df4b",
"ci c #f6df4c",
"cK c #f6e539",
"cC c #f6e53a",
"aN c #f7db2b",
"e6 c #f7db31",
"#Y c #f7dc31",
"aU c #f7dc32",
"cX c #f7dc33",
"fk c #f7df34",
"bd c #f7e365",
"be c #f7e467",
"bc c #f7e674",
"#u c #f7e83a",
"#v c #f7e83c",
"#D c #f7e83d",
"b6 c #f7ed3a",
"#t c #f7ee5e",
"aO c #f8dc32",
"d. c #f8dd32",
"fl c #f8de31",
"dZ c #f8e739",
"#w c #f8e93c",
"eM c #f8ec3f",
".5 c #f8ed3a",
"cn c #f8ed3c",
"aJ c #f8ed3e",
"aI c #f8ed40",
"eL c #f8ed41",
".6 c #f8ee3d",
"aw c #f8ee3f",
".U c #f8ee41",
"#a c #f8ee42",
"aK c #f8ee4b",
"ax c #f8ee4c",
".8 c #f8ef41",
".7 c #f8ef42",
"co c #f8f180",
"#r c #f8f276",
"#s c #f8f278",
"e7 c #f9dd31",
"cW c #f9dd32",
"bs c #f9de31",
"c8 c #f9de32",
"#C c #f9ea3d",
"ag c #f9ee3f",
"af c #f9ee41",
"ah c #f9ee4c",
"aj c #f9efa7",
"#V c #f9efa9",
"b7 c #f9f598",
"cg c #f9f69b",
"dl c #fade31",
"aP c #fade32",
"#5 c #fadf32",
"ao c #fadf33",
"aM c #faf0a8",
"cs c #faf4c1",
"bV c #fbdf31",
"df c #fbdf32",
"dL c #fbe032",
"fr c #fbe133",
"b5 c #fbf141",
"#q c #fbf577",
"cp c #fbf5cd",
"cq c #fbf6cb",
"cr c #fbf6cc",
"bb c #fbf9c6",
"bO c #fcdf2b",
"dJ c #fce031",
"c# c #fce032",
"f. c #fce033",
"bf c #fce869",
"#E c #fced3d",
".4 c #fcf13a",
"dX c #fcf141",
".T c #fcf241",
"## c #fcf242",
"#R c #fcf243",
"#S c #fcf24e",
"dY c #fcf342",
"cV c #fde132",
"aT c #fde133",
"bJ c #fdf99b",
"ba c #fdfacd",
"aL c #fdfde7",
"dF c #fee131",
"d# c #fee232",
".9 c #fef342",
"bI c #fef43a",
".L c #fef442",
"b# c #fefccf",
"b8 c #fefcf2",
"ay c #fefde6",
"ai c #fefde7",
"bK c #fefdf7",
"ch c #fefdf8",
"#T c #fefee8",
"dk c #ffe333",
"dM c #ffe632",
"fj c #fff441",
".V c #fff442",
"aH c #fff541",
"#. c #fff542",
"fi c #fff642",
"bH c #fff742",
".K c #fff842",
"#Q c #fff944",
".M c #fffa43",
"fh c #fffd43",
"#U c #ffffff",
"Qt.#.a.#.#.#.#.#.#.#.b.b.cQtQtQtQtQtQt.c.cQt.#.b.b.b.b.b.#.#.#.#.#.#.#.#.#.#.#.#.#.#.#.#.#.#.#.#.#.#.#.#.#.#.#.#.#.#.#.#.#.a.#Qt",
".#.a.a.b.b.b.b.b.b.a.b.b.bQtQtQtQtQt.c.c.a.a.a.a.a.a.a.a.a.a.a.a.a.a.a.a.a.a.b.a.a.b.b.b.b.b.b.b.b.b.b.a.a.a.a.b.b.b.b.b.b.a.a.#",
".#.b.b.a.a.a.a.a.a.a.b.b.bQtQtQtQtQt.b.a.b.b.b.b.b.b.b.b.b.b.b.a.a.a.a.a.a.a.a.a.a.a.a.a.a.b.b.b.a.a.a.a.a.a.a.a.a.a.a.a.a.b.b.#",
".#.b.b.b.a.a.b.a.a.b.b.b.b.cQtQtQtQt.b.a.b.b.b.b.b.b.b.b.b.b.b.#.#.b.#.#.b.b.b.b.b.b.b.b.b.b.b.b.b.#.#.#.#.#.#.#.b.b.a.a.b.b.b.#",
".#.a.b.b.b.a.b.b.b.b.b.b.b.bQtQtQtQt.b.b.a.b.b.b.b.b.b.b.b.b.b.b.b.b.b.b.b.b.b.b.b.b.b.b.b.b.b.b.b.b.b.b.#.b.#.b.b.b.a.b.b.b.a.#",
".#.a.b.b.b.b.a.b.b.b.b.b.#.bQtQtQtQt.b.b.a.b.b.b.b.b.b.b.b.b.b.a.b.b.b.b.b.a.a.a.a.a.a.a.a.a.a.a.b.b.b.b.b.b.b.b.a.a.b.b.b.b.a.#",
".#.b.b.b.b.a.a.a.a.a.#.#.#.bQtQtQtQt.b.#.a.a.a.a.a.a.a.#.#.#.#.#.a.a.a.a.a.#.#.#.#.#.#.#.#.#.#.#.a.a.a.a.a.a.a.a.a.a.a.b.b.b.b.#",
".#.a.b.b.b.a.#.#.#.#.#.#.b.bQtQtQtQt.b.b.d.e.f.f.f.f.f.f.f.f.f.f.f.f.f.f.f.f.f.f.f.f.f.g.#.#.#.#.#.#.#.#.#.#.#.#.#.#.a.b.b.b.a.#",
".#.a.b.b.b.a.#.#.#.#.#.#.b.bQtQtQtQt.b.b.h.e.f.f.f.f.f.f.f.f.f.f.f.f.f.f.f.f.f.f.f.f.f.i.#.#.#.#.#.#.#.#.#.#.#.#.#.#.a.b.b.b.a.#",
".#.a.b.b.b.a.#.#.#.#.#.#.#.bQtQtQtQt.#.b.h.j.k.k.k.f.k.k.k.k.k.k.k.l.k.k.k.k.k.k.k.k.k.m.#.#.#.#.#.#.#.#.#.#.#.#.#.#.a.b.b.b.a.#",
".#.a.b.b.b.a.#.#.#.#.#.#.#.bQtQtQtQt.#.b.n.o.p.p.p.p.p.q.q.k.k.q.k.k.k.q.q.k.q.q.k.q.p.r.#.#.#.#.#.#.#.#.#.#.#.#.#.#.a.b.b.b.a.#",
".#.b.b.b.#.#.#.#.#.#.#.#.b.bQtQt.s.t.u.v.w.x.y.z.z.z.z.z.z.z.z.z.z.z.z.z.z.z.z.z.z.z.A.B.C.D.D.E.F.#.#.#.#.#.#.#.#.#.#.#.b.b.b.#",
".#.b.b.b.b.#.#.#.#.#.#.#.b.bQtQt.G.f.f.H.I.J.K.L.L.L.L.L.L.L.L.L.L.L.L.L.L.L.L.L.L.L.M.N.O.f.f.P.Q.#.#.#.#.#.#.#.#.#.#.b.b.b.b.#",
".#.a.b.b.b.a.#.#.#.#.#.#.b.bQtQt.R.f.f.H.I.S.T.U.U.U.U.U.U.U.U.U.U.U.U.U.U.U.U.U.U.U.V.W.O.f.f.P.X.#.#.#.#.#.#.#.#.#.a.b.b.b.a.#",
".#.a.b.b.a.#.a.#.#.#.c.b.b.cQtQt.Y.Z.0.1.2.3.4.5.5.6.7.7.7.8.9.V.V#.##.U.7.7#a.7.7.7#.#b#c#d#d#e#f.c.c.c.c.c.#.#.#.a.#.a.b.b.b.#",
".b.c.a.a.a.c.c.c.c.c.c#g#h#i#i#j#k#l#m#n#o#p#q#r#s#t#u#v#w#x#y#z#A.W#B#C#v#v#D#v#v#v#E#F#G#H#H#I#J#K#L#L#M.c.c.c.c.c.c.a.a.a.a.b",
"QtQt.c.c.c.c.c.c.c.cQt#N#O.P.P.Z#P#Q#R.T#S#T#U#U#U#V#W#X#Y#Z#0#1#2#3#4#5#X#X#X#X#X#X#6#7#8#9#9a.a#aa.P.PabQt.c.c.c.c.c.c.c.c.aQt",
"QtQtQtQtQtQtQtQtQtQtQt#Nac.f.fadae#.afagahai#U#U#Uaj#W#X#Y#Zakal.famanao#X#X#X#X#X#Xapaqarasasata#au.f.favQtQtQtQtQtQtQtQtQtQtQt",
"QtQtQtQtQtQtQtQtQtQtQt#Nac.f.fadae#..Uawaxay#U#U#Uaj#W#X#Y#Zakal.famanao#X#X#X#X#X#XapaqazasasaAa#au.f.faBQtQtQtQtQtQtQtQtQtQtQt",
"QtQtQtQtQtQtQtQtQtQtQtaCaDaEaEaFaGaHaIaJaKaL#U#U#UaMaNaOaPaQaRal.famaSaTaUaOaUaV#X#XapaqaWaXasaYaZam.Ha0a1QtQtQtQtQtQtQtQtQtQtQt",
"QtQtQtQtQtQtQta2a3a3a4a5a6a7a8a9b.b#bababbbcbdbebfbgbhbibjbkbl.l.fbmbnbobibpbqbrbs#X#XbtbubvbvbvbwbxbybzbAbBbCbDbDQtQtQtQtQtQtQt",
"QtQtQtQtQtQtQt.f.f.fbEbFbGbH.VbIbJ#U#U#UbKbLbMbNbObPbQamambR.l.f.f.f.HamambSbTbUbV#X#XaVbWbWbWbXbYbZb0b1b2.lb3.f.fQtQtQtQtQtQtQt",
"Qt.b.a.b.b.b.b.f.f.fbEbFb4b5.Ub6b7#U#U#Ub8b9c.#Xc#cacb.f.f.f.f.f.f.f.f.f.f.lcccdbV#X#X#X#X#X#XaVceazasb0cf.lb3.f.f.b.b.b.b.b.bQt",
".c.a.b.a.b.b.b.f.f.fbEbFb4b5.Ub6cg#U#U#Uchcic.#Xc#cacb.f.f.fcjbRbRbRbRbRbRckclcmbV#X#X#X#X#X#XaVceazasb0cf.lb3.f.f.b.b.b.b.b.b.c",
".c.a.#.#.b.a.a.f.f.fbEbFb4b5.Ucncocpcqcrcsctcu#Xc#cacb.f.fcvcwcxcycybkcycyczcAcBbs#X#X#X#X#X#XaVceazasb0cf.lb3.f.f.b.b.b.#.#.#.c",
".c.a.#.#.#.#.c.f.f.fbEbFb4b5.U.7cCcD#X#XcE#X#X#Xc#cacb.f.HcFcGaocHcHcIcJcHcHcIaV#X#X#X#X#X#X#XaVceazasb0cf.lb3.f.f.c.b.#.#.#.b.c",
".c.#.#.#.#.#.a.f.f.fbEbFb4b5.U.7cKcL#X#X#X#X#X#Xc#cacb.f.HcMcNbs#X#XcO#X#X#X#X#X#X#X#X#X#X#X#XaVceazasb0cf.lb3.f.f.#.#.#.b.#.#.c",
".c.a.#.#.#.#.a.f.f.fbEbFb4b5.U.7cKcL#X#X#X#X#X#Xc#cacb.f.HcMcNbs#X#XcO#X#X#X#X#X#X#X#X#X#X#X#XaVceazasb0cf.lb3.f.f.#.#.#.#.#.b.c",
".c.b.#.#.#.#.b.f.f.fbEbFb4b5.U.7cKcL#X#X#X#X#X#Xc#cPcQcRcScTcUcVcWcWcX#X#X#X#X#X#X#X#X#X#X#X#XaVceazasb0cf.lb3.f.f.b.#.#.#.#.b.c",
".c.b.#.c.b.#.b.f.f.fbEbFb4b5.U.7cKcL#X#X#X#X#X#X#YcYcZc0c1c2c3c4c5c6c7c8#X#X#X#X#X#X#X#X#X#X#XaVceazasb0cfc9b3.f.f.b.#.#.#.#.b.c",
".c.#.#.#.#.#.b.f.f.fbEbFb4b5.U.7cKcL#X#X#X#X#X#X#Xd.c#c#d#dadbdc.0dddedf#X#X#X#X#X#X#X#X#X#X#XaVceazasb0cfc9b3.f.f.b.#.#.#.#.#.c",
".c.b.#.#.#.#.b.f.f.fbEbFb4b5.U.7cKcL#X#X#X#X#X#X#X#X#X#X#Y#Zakal.famanao#X#X#X#X#X#X#X#X#X#X#XaVceazasb0cfc9b3.f.f.b.#.#.#.#.b.c",
".c.b.#.#.#.#.a.f.f.fbEbFb4b5.U.7cKcL#X#X#X#X#X#X#X#X#X#X#Y#Zdgdhaudidjdkdldldl#6#X#X#X#X#X#X#XaVceazasb0cfc9b3.f.f.b.#.#.#.#.b.c",
".c.b.#.#.#.#.a.f.f.fbEbFb4b5.U.7cKcL#X#X#X#X#X#X#X#X#X#X#Ydmdndodpdqdrdsdtdudtdv#6#X#X#X#X#X#XaVceazasb0cfc9b3.f.f.#.#.#.#.#.b.c",
".c.#.#.b.b.c.#.f.f.fbEbFb4b5.U.7cKcL#X#X#X#X#X#X#X#X#X#X#X#Xdwdxdxd.dydzdAdBdCdDbV#X#X#X#X#X#XaVceazasb0dEc9b3.f.f.#.c.b.b.#.#.c",
".c.#.cQtQtQtQt.f.f.fbEbFb4b5.U.7cKcL#X#X#X#X#X#X#X#X#X#X#X#X#6#6#6dFdGbRdHdI.kcdbV#X#X#X#X#X#XaVceazasb0dEc9b3.f.fQtQtQtQt.c.#.c",
"QtQt.c.cQtQtQt.f.f.fbEbFb4b5.U.7cKcL#X#X#X#X#X#X#X#X#X#X#X#X#X#X#XdJdKcj.f.lcccdbV#X#X#X#X#X#XaVceazasb0dEc9b3.f.fQtQtQtQtQtQtQt",
"QtQtQtQtQtQtQt.f.f.fbEbFb4b5.U.7cKcL#X#X#X#X#X#X#XaOdLdLdLdLdLdLdLdMdNdO.f.lcccdbV#X#X#X#X#X#XaVceazasb0dEc9b3.f.fQtQtQtQtQtQtQt",
"QtQtQtQtQtQtQt.f.f.fbEbFb4b5.U.7cKcL#X#X#X#X#X#XbsdPdQdRdRdRdRdRdRdSdT.H.f.lcccdbV#X#X#X#X#X#XaVceazasb0cfc9b3.f.fQtQtQtQtQtQtQt",
"QtQtQtQtQtQtQt.f.f.fbEbFb4b5.U.7cKcL#X#X#X#X#X#Xc#dUdVbSbSbSbSbSbSbScj.f.f.lcccdbV#X#X#X#X#X#XaVceazasb0cfc9b3.f.fQtQtQtQtQtQtQt",
"QtQtQtQtQtQtQt.f.f.fbEbFb4b5.U.7cKcL#X#X#X#X#X#Xc#cacb.f.f.f.f.f.f.f.f.f.f.lcccdbV#X#X#X#X#X#XaVceazasb0cfc9b3.f.fQtQtQtQtQtQtQt",
"QtQtQtQtQtQtQt.f.f.fbEbFdWaHdXdYdZd0#X#X#X#X#X#Xc#cPd1d2d2d2.f.f.f.f.ld2d2aud3cmbV#X#X#XaVaVaVbWd4d5d6d7d8c9b3.f.fQtQtQtQtQtQtQt",
".#.#.#QtQt.#.#d9e.e#eaebecedeeefegeheieiej#X#X#XbVekelememeneo.f.f.lepakemeneqerdl#X#XeseteueuetevewexeyezeAeBeCeDQtQtQtQtQtQtQt",
".c.c.c.b.#.#.#eEeFeGeFeHeIblbleJeK.LeLeLeMej#X#X#XeNeOeOePeQemd2.fameReSeOeOeOeT#X#XapeUeVeVeVeWeXeYeZeZe0.#eGeGe1.#.#.#.#.bQt.c",
".c.b.c.c.cQt.c.b.b.b.ce2e3.Hbme4e5#..U.UaIej#X#X#X#6e6e6e7e8akal.fame9f.e6e6e6#X#X#XapaqazasasaAf#fabmbmfb.#.#.#.#.b.b.b.b.#.c.c",
"Qt.c.#.#.#.b.#.c.c.c.ce2fc.f.fadae#..U.UaIej#X#X#X#X#X#X#Y#Zakal.famanao#X#X#X#X#X#XapaqazasasaAa#au.f.ffd.#.#.#.b.#.#.#.#.#.c.c",
"Qt.#.#.#.#.#.c.c.c.c.ce2fe.f.ffffgfh#.fifjfkapapapapapapflfmfnfofafpfqfrapapapapapapfsftfufvfvfwfxau.f.ffy.c.c.c.#.#.#.#.#.#.b.c",
"Qt.#.#.#.#.c.c.c.c.c.cfzfAfBfCfDfEfFfGfHfIfJfKfLfLfLfLfLfMfNfOfPfQfRfSfTfLfLfLfLfLfUfVfWfXfYfYfYfZf0fBf1f2.c.c.c.#.#.#.#.#.#.b.c",
"Qt.#.#.#.#.b.c.c.c.c.c.c.c.c.c.cf3ffcb#cf4f5f6f7f8f8f8f8f7azb0f9fvg.g#f7f8f8f7f7f8f7gagb#cfagcgdge.c.c.c.c.c.c.c.b.#.#.#.#.#.b.c",
"Qt.c.#.#.#.c.c.c.c.c.c.c.cQtQt.cgf.f.fbmggghgiasasasasasasasasasasasasasasasasasasasb0gjd3.f.f.Pgk.c.cQt.c.c.c.c.b.#.#.#.#.#.b.c",
"Qt.#.c.#.#.b.c.c.c.c.c.c.cQtQt.cgf.f.fbmggglgmd6d6d6d6d6d6d6d6d6d6d6d6d6d6d6d6d6d6d6gngod3.f.f.Pgp.c.c.#.c.c.c.c.#.#.#.#.#.#.b.c",
"Qt.#.#.#.#.b.c.c.c.c.c.c.c.cQtQtgqeDeDeAgrgsgtgughgugugugugugugugugugugvgugugvgvgvgugwgxgygzgzgAgB.c.c.c.c.c.c.cQt.#.#.#.#.#.b.c",
"Qt.b.#.#.#.#.c.c.c.c.c.c.c.c.#.cgC#N#NgDgEgFgGgHgHgIgIgIgIgIgJgJgIgIgJgJgIgIgJgJgJgIgIgKgL#N#NgMeE.c.c.c.c.c.#.cQtQt.c.#.#.#.b.c",
"Qt.a.#.#.#.#.c.c.c.c.c.c.c.c.c.c.c.c.c.cgNgObmbmbmbmbmbmbmbmbmbmbmbmbmbmbmbmbmbmbmbmbmgPQtQtQt.#.#.c.c.c.c.c.c.c.#.b.b.#.#.#.b.c",
"Qt.b.#.#.#.b.c.c.c.c.c.c.c.c.c.c.c.c.c.cgNgQ.f.f.f.f.f.f.f.f.f.f.f.f.f.f.f.f.f.f.f.f.fgRQtQt.c.c.c.c.c.c.c.c.c.c.b.#.#.#.#.#.c.c",
"Qt.b.#.#Qt.b.c.c.c.c.c.c.c.c.c.c.c.c.c.cgNgQ.f.f.f.f.f.f.f.f.f.f.f.f.f.f.f.f.f.f.f.f.fgPQtQt.b.c.c.c.b.c.c.c.c.c.b.#.#.#.#.#.b.c",
"Qt.a.#.#.c.b.#.#.c.c.c.c.c.c.c.c.c.c.c.c.c.c.c.c.#.c.c.c.c.c.c.c.c.c.c.c.c.c.c.c.c.#.#QtQtQtQt.b.b.b.#.c.c.c.c.c.#.#.#.#.#.#.b.c",
"Qt.c.#.#.#.#.bQtQt.c.c.c.c.c.cQtQt.cQtQtQt.c.c.c.c.c.c.c.c.c.cQtQtQt.cQtQtQtQt.c.c.b.#QtQtQtQt.#.#.c.c.c.c.c.c.c.#.c.#.#.#.#.b.c",
"Qt.#.#.c.c.b.c.#.#.#.#.#.#.#.#.#.#.#.#.b.b.#.c.c.c.c.c.#.#.c.c.cQtQt.c.c.c.c.#QtQt.c.cQtQtQt.cQtQtQtQtQtQtQtQtQtQt.#.#.#.#.b.cQt",
"Qt.b.#.#.bQt.c.#.c.#.#.#.#.b.b.#.c.c.c.c.#.c.c.c.c.c.#.#.c.cQt.c.#.#.#.#.#.#.#.#.#.#QtQtQtQtQtQt.#.a.c.#.#.#.#QtQtQtQt.b.#.bQtQt",
"Qt.#.#.b.#.c.#.#.#.#.#.#.c.c.c.c.c.c.c.c.c.c.c.c.c.c.c.c.c.#.#.#.#.#.#.#.#.#.#.c.#.c.bQtQtQt.c.#.b.c.#.#.#.#.#.#.#.#.#.#Qt.#QtQt",
"QtQt.b.b.#.#.#.#.b.a.#.c.c.c.c.c.c.c.c.c.c.c.c.c.c.c.c.c.#.#.#.#.#.#.#.#.#.#.#.#.c.c.#QtQtQt.c.a.c.c.#.#.#.#.#.#.#.#.#.#.bQtQtQt",
"QtQt.b.b.b.#.#.#.b.#.#.#.#.#.#.#.#.#.#.c.c.c.c.#.#.#.#.#.c.c.c.#.#.#.#.#.#.#.#.#.#.#.cQtQtQtQtQt.#.#Qt.#.#.#.#.#.#.#.#.bQtQtQtQt",
"QtQtQtQtQtQtQtQtQtQtQtQtQtQtQtQtQtQtQtQtQtQtQtQtQtQtQtQtQtQtQtQtQtQtQtQtQtQtQtQtQtQtQtQtQtQtQtQtQtQtQtQtQtQtQtQtQtQtQtQtQtQtQtQt"};
